<svg xmlns="http://www.w3.org/2000/svg" viewBox="0 0 300 305"><path fill="#FFBE0F" d="M154.23 2.05c83.67 0 151.5 67.83 151.5 151.5v151.51h-151.5c-83.68 0-151.51-67.83-151.51-151.51 0-83.67 67.83-151.5 151.51-151.5z"/><path fill="#FEFEFE" d="M84.66 63.49h57.64v178.93H81.71V63.49h2.95zm51.73 5.91H87.62v167.12h48.77V69.4z"/><path fill="#FEFEFE" d="M123.14 221.77h16.21v5.91h-16.21v-5.91zm0-143.53h16.21v5.9h-16.21v-5.9zm0 20.5h16.21v5.91h-16.21v-5.91zm0 20.51h16.21v5.9h-16.21v-5.9zm0 20.5h16.21v5.91h-16.21v-5.91zm0 20.51h16.21v5.9h-16.21v-5.9zm0 20.5h16.21v5.91h-16.21v-5.91zm0 20.51h16.21v5.9h-16.21v-5.9zM190.71 83.8h41.23v37.93h-44.18V83.8h2.95zm35.33 5.9h-32.38v26.13h32.38V89.7z"/><path fill="#FEFEFE" d="M170.41 220.85l10.9 2.48 23.21-101.6h-11.46l-22.65 99.12zm12.46 8.89l-19.51-4.46 25-109.45h23.56l-26.18 114.56-2.87-.65z"/><path fill="#FEFEFE" d="M172.34 224.3a2.948 2.948 0 0 1 3.53-2.21c1.58.36 2.57 1.94 2.21 3.53l-3.43 15a2.946 2.946 0 0 1-3.53 2.22 2.957 2.957 0 0 1-2.21-3.53l3.43-15.01zM180.1 142.39a2.957 2.957 0 0 1-2.21-3.53 2.946 2.946 0 0 1 3.53-2.22l26.55 6.07c1.59.36 2.58 1.94 2.21 3.53a2.946 2.946 0 0 1-3.53 2.22l-26.55-6.07zM253.47 225.93l-19.51 4.46-26.18-114.56h23.56c8.32 36.48 16.66 72.97 25 109.45l-2.87.65zm-15.08-2.6l10.89-2.48-22.64-99.12h-11.46l23.21 101.6z"/><path fill="#FEFEFE" d="M241.62 225.62c-.36-1.59.63-3.17 2.21-3.53 1.59-.36 3.17.63 3.53 2.21l3.43 15.01c.36 1.58-.63 3.16-2.21 3.53-1.59.36-3.17-.63-3.53-2.22l-3.43-15zM238.28 136.64c1.59-.36 3.17.63 3.53 2.22.36 1.58-.63 3.16-2.21 3.53l-26.56 6.07c-1.58.36-3.16-.63-3.52-2.22-.37-1.59.62-3.17 2.21-3.53l26.55-6.07zM212.8 86.75a2.949 2.949 0 1 1-5.9 0v-20.7c0-1.63 1.32-2.96 2.95-2.96 1.63 0 2.95 1.33 2.95 2.96v20.7z"/></svg>